# xmcd CD database file
#
# Track frame offsets:
#	288
#	12785
#	42376
#	49542
#	82039
#	104683
#	121360
#	133343
#	152994
#	165873
#	174060
#	189822
#	206627
#	228124
#
# Disc length: 3432 seconds
#
# Revision: 0
# Processed by: cddbd v1.5.2PL0 Copyright (c) Steve Scherf et al.
# Submitted via: CDex 1.51
#
DISCID=ac0d650e
DTITLE=Good Vibes Trio - All Is Wood Swing-Gum
DYEAR=2015
DGENRE=Jazz
TTITLE0=Saint Thomas
TTITLE1=Body And Soul
TTITLE2=Hello Dolly
TTITLE3=Beautiful Love
TTITLE4=You Don't Know What Love Is
TTITLE5=Mack The Knife
TTITLE6=On The Sunny Side Of The Street
TTITLE7=Whisper Not
TTITLE8=I Remember Clifford
TTITLE9=Blues Sue Des Doigts
TTITLE10=Bossa Antigua
TTITLE11=Cold Duck Time
TTITLE12=Here's That Rainy Day
TTITLE13=Bags Groove
EXTD=YEAR: 2015
EXTT0=
EXTT1=
EXTT2=
EXTT3=
EXTT4=
EXTT5=
EXTT6=
EXTT7=
EXTT8=
EXTT9=
EXTT10=
EXTT11=
EXTT12=
EXTT13=
PLAYORDER=
